<svg width="1440" height="679" fill="none" xmlns="http://www.w3.org/2000/svg"><path d="M0 175.235c116.668 39.274 305.231 81.112 443.346 39.548C651.274 152.21 827.213-49.982 1133.61 13.017c122.64 25.217 226.46 70.172 306.39 116.105M0 328.058c116.668-7.651 305.231-15.801 443.346-7.704 207.928 12.19 383.867 51.578 690.264 39.305 122.64-4.912 226.46-13.67 306.39-22.618M0 641.29c116.668 11.561 305.231 23.877 443.346 11.642 207.928-18.42 383.867-77.94 690.264-59.395 122.64 7.424 226.46 20.657 306.39 34.179" stroke="#590D56"/><path d="M0 419.529c116.668 21.082 305.231 43.54 443.346 21.229 207.928-33.589 383.867-142.125 690.264-108.308 122.64 13.537 226.46 37.669 306.39 62.325M0 560.335c116.668-26.523 305.231-54.777 443.346-26.708 207.928 42.257 383.867 178.803 690.264 136.258 122.64-17.03 226.46-47.39 306.39-78.409" stroke="#590D56"/></svg>