<svg aria-hidden="true" width="68" height="45" fill="none" xmlns="http://www.w3.org/2000/svg"><path d="M1 4.484C6.347 2.88 14.99 1.173 21.32 2.869c9.53 2.554 17.594 10.807 31.637 8.236A51.247 51.247 0 0 0 67 6.365" stroke="#47093E" stroke-width="3"><animate attributeName="d" dur=".3s" begin="indefinite" fill="freeze" repeatCount="1" values="M1 4.4837C6.3473 2.88065 14.9897 1.17301 21.32 2.8695C30.8501 5.4235 38.9139 13.6762 52.957 11.1048C58.5783 10.0755 63.3366 8.24065 67 6.36585; M1 20.1028C6.3473 18.4998 14.9897 16.7922 21.32 18.4886C30.8501 21.0426 38.9139 29.2954 52.957 26.724C58.5783 25.6947 63.3366 23.8598 67 21.985"/><animate attributeName="d" dur=".3s" begin="indefinite" fill="freeze" repeatCount="1" values="M1 20.1028C6.3473 18.4998 14.9897 16.7922 21.32 18.4886C30.8501 21.0426 38.9139 29.2954 52.957 26.724C58.5783 25.6947 63.3366 23.8598 67 21.985; M1 4.4837C6.3473 2.88065 14.9897 1.17301 21.32 2.8695C30.8501 5.4235 38.9139 13.6762 52.957 11.1048C58.5783 10.0755 63.3366 8.24065 67 6.36585"/></path><path d="M1 35.722c5.347-1.603 13.99-3.311 20.32-1.614 9.53 2.553 17.594 10.806 31.637 8.235A51.247 51.247 0 0 0 67 37.603" stroke="#47093E" stroke-width="3"><animate attributeName="d" dur=".3s" begin="indefinite" fill="freeze" repeatCount="1" values="M1 35.7217C6.3473 34.1187 14.9897 32.411 21.32 34.1075C30.8501 36.6615 38.9139 44.9143 52.957 42.3429C58.5783 41.3136 63.3366 39.4787 67 37.6039; M1 20.1028C6.3473 18.4998 14.9897 16.7922 21.32 18.4886C30.8501 21.0426 38.9139 29.2954 52.957 26.724C58.5783 25.6947 63.3366 23.8598 67 21.985"/><animate attributeName="d" dur=".3s" begin="indefinite" fill="freeze" repeatCount="1" values="M1 20.1028C6.3473 18.4998 14.9897 16.7922 21.32 18.4886C30.8501 21.0426 38.9139 29.2954 52.957 26.724C58.5783 25.6947 63.3366 23.8598 67 21.985; M1 35.7217C6.3473 34.1187 14.9897 32.411 21.32 34.1075C30.8501 36.6615 38.9139 44.9143 52.957 42.3429C58.5783 41.3136 63.3366 39.4787 67 37.6039"/></path><path d="M1 20.103c5.347-1.603 13.99-3.31 20.32-1.614 9.53 2.554 17.594 10.806 31.637 8.235A51.247 51.247 0 0 0 67 21.985" stroke="#47093E" stroke-width="3"/></svg>