<svg width="134" height="135" fill="none" xmlns="http://www.w3.org/2000/svg"><path d="M134 67.008c0 37.003-29.997 67-67 67s-67-29.997-67-67 29.997-67 67-67 67 29.997 67 67Z" fill="#590D56"/><path d="M90.5 67.008c0 12.978-10.521 23.5-23.5 23.5s-23.5-10.522-23.5-23.5c0-12.98 10.521-23.5 23.5-23.5s23.5 10.52 23.5 23.5Z" stroke="#fff"/><path d="M95.5 67c0 15.74-12.76 28.5-28.5 28.5S38.5 82.74 38.5 67 51.26 38.5 67 38.5 95.5 51.26 95.5 67Z" stroke="#fff"/><path d="M75.5 67a8.5 8.5 0 1 1-17 0 8.5 8.5 0 0 1 17 0Z" stroke="#fff"/><path d="M71.5 67.008a4.5 4.5 0 1 1-9 0 4.5 4.5 0 0 1 9 0Z" stroke="#fff"/></svg>