<svg width="135" height="135" fill="none" xmlns="http://www.w3.org/2000/svg"><circle cx="67.073" cy="67.133" r="67" fill="#590D56"/><g clip-path="url(#a)"><path d="M-3.554 124.849c2.46-8.397 13.362-28.285 37.297-40.663 29.919-15.472 74.999-16.975 100.178-49.675" stroke="transparent"/><path d="M11.446 108.656c2.46-8.396 5.193-31.345 29.128-43.722 29.918-15.472 88.82-8.3 113.999-41" stroke="#fff"/><path d="M15.488 135.618c18.533-5.282 59.526-26.926 75.231-71.245 15.705-44.32 18.066-62.22 17.283-65.63" stroke="transparent"/><path d="M5.073 126.125c18.534-5.282 62.295-10.18 78-54.5 15.706-44.319 42.783-63.59 42-67" stroke="#fff"/></g><defs><clipPath id="a"><rect width="134" height="134" rx="67" fill="#fff"/></clipPath></defs></svg>