<svg width="134" height="135" fill="none" xmlns="http://www.w3.org/2000/svg"><circle cx="67" cy="67.008" r="67" fill="#590D56"/><path d="m75.867 22.586.158.101.186-.028 10.995-1.664 6.12 9.284.103.157.181.05 10.721 2.95 1.814 10.971.031.186.145.12 8.594 7.056-2.804 10.76-.048.182.084.168 4.981 9.942-6.939 8.69-.117.146.008.188.506 11.108-9.873 5.116-.167.087-.068.175-4.056 10.353-11.1.658-.188.011-.134.132-7.916 7.809-10.408-3.914-.176-.066-.176.066-10.408 3.914L48 109.485l-.134-.132-.188-.011-11.1-.658-4.056-10.353-.069-.175-.166-.087-9.873-5.116.506-11.108.008-.188-.117-.147-6.939-8.689 4.98-9.942.085-.168-.047-.182-2.805-10.76 8.593-7.057.146-.119.03-.186 1.815-10.97 10.72-2.951.182-.05.104-.157 6.12-9.284 10.994 1.664.186.028.158-.101 9.367-5.992 9.367 5.992Z" stroke="#fff"/><path d="m78.332 12.85.158.101.186-.028 13.3-2.013 7.404 11.231.103.157.181.05 12.97 3.57 2.195 13.272.031.186.145.119 10.396 8.537-3.393 13.017-.047.182.084.168 6.025 12.027-8.394 10.512-.117.147.008.188.613 13.438-11.944 6.189-.167.086-.069.175-4.906 12.525-13.428.796-.188.011-.134.133-9.577 9.446-12.591-4.735-.176-.066-.176.066-12.591 4.735-9.577-9.446-.134-.133-.188-.011-13.428-.796L26 104.161l-.069-.175-.167-.086-11.944-6.19.612-13.437.01-.188-.118-.147L5.93 73.426 11.955 61.4l.084-.168-.047-.182-3.393-13.017 10.396-8.537.145-.12.03-.185 2.196-13.271 12.97-3.57.18-.05.104-.158 7.404-11.231 13.3 2.013.186.028.158-.1L67 5.6l11.332 7.25Z" stroke="#fff"><animate attributeName="d" dur="3s" repeatCount="indefinite" values="M78.3316 12.8502L78.49 12.9515L78.6759 12.9234L91.9762 10.91L99.3797 22.1413L99.4832 22.2983L99.6645 22.3482L112.634 25.9186L114.829 39.1902L114.86 39.3757L115.005 39.495L125.401 48.0319L122.008 61.049L121.961 61.2309L122.045 61.399L128.07 73.4263L119.676 83.9381L119.559 84.085L119.567 84.2728L120.18 97.7108L108.236 103.9L108.069 103.986L108 104.161L103.094 116.686L89.6655 117.482L89.4778 117.493L89.3439 117.626L79.7671 127.072L67.176 122.337L67 122.271L66.824 122.337L54.2329 127.072L44.6561 117.626L44.5222 117.493L44.3345 117.482L30.9062 116.686L25.9996 104.161L25.9311 103.986L25.7641 103.9L13.8205 97.7108L14.4325 84.2728L14.4411 84.085L14.3238 83.9381L5.92995 73.4263L11.9548 61.399L12.039 61.2309L11.9916 61.049L8.599 48.0319L18.9949 39.495L19.1402 39.3757L19.1709 39.1902L21.3661 25.9186L34.3355 22.3482L34.5168 22.2983L34.6203 22.1413L42.0237 10.91L55.3241 12.9234L55.51 12.9515L55.6684 12.8502L67 5.60113L78.3316 12.8502Z; M75.8669 22.5858L76.0253 22.6871L76.2112 22.6589L87.2055 20.9947L93.3254 30.2787L93.4288 30.4356L93.6101 30.4855L104.331 33.4369L106.145 44.4075L106.176 44.593L106.321 44.7123L114.915 51.769L112.111 62.5292L112.063 62.7111L112.147 62.8792L117.128 72.8212L110.189 81.5104L110.072 81.6573L110.08 81.8451L110.586 92.9532L100.713 98.0691L100.546 98.1556L100.478 98.3307L96.4221 108.684L85.3219 109.342L85.1343 109.353L85.0004 109.485L77.084 117.294L66.676 113.38L66.5 113.314L66.324 113.38L55.916 117.294L47.9996 109.485L47.8657 109.353L47.6781 109.342L36.5779 108.684L32.5221 98.3307L32.4535 98.1556L32.2866 98.0691L22.4137 92.9532L22.9197 81.8451L22.9282 81.6573L22.8109 81.5104L15.8724 72.8212L20.8527 62.8792L20.9369 62.7111L20.8895 62.5292L18.0851 51.769L26.6785 44.7123L26.8239 44.593L26.8545 44.4075L28.6691 33.4369L39.3899 30.4855L39.5712 30.4356L39.6746 30.2787L45.7945 20.9946L56.7888 22.6589L56.9747 22.6871L57.1331 22.5858L66.5 16.5936L75.8669 22.5858Z; M78.3316 12.8502L78.49 12.9515L78.6759 12.9234L91.9762 10.91L99.3797 22.1413L99.4832 22.2983L99.6645 22.3482L112.634 25.9186L114.829 39.1902L114.86 39.3757L115.005 39.495L125.401 48.0319L122.008 61.049L121.961 61.2309L122.045 61.399L128.07 73.4263L119.676 83.9381L119.559 84.085L119.567 84.2728L120.18 97.7108L108.236 103.9L108.069 103.986L108 104.161L103.094 116.686L89.6655 117.482L89.4778 117.493L89.3439 117.626L79.7671 127.072L67.176 122.337L67 122.271L66.824 122.337L54.2329 127.072L44.6561 117.626L44.5222 117.493L44.3345 117.482L30.9062 116.686L25.9996 104.161L25.9311 103.986L25.7641 103.9L13.8205 97.7108L14.4325 84.2728L14.4411 84.085L14.3238 83.9381L5.92995 73.4263L11.9548 61.399L12.039 61.2309L11.9916 61.049L8.599 48.0319L18.9949 39.495L19.1402 39.3757L19.1709 39.1902L21.3661 25.9186L34.3355 22.3482L34.5168 22.2983L34.6203 22.1413L42.0237 10.91L55.3241 12.9234L55.51 12.9515L55.6684 12.8502L67 5.60113L78.3316 12.8502Z"/></path></svg>